<?xml version="1.0"?>
<svg xmlns="http://www.w3.org/2000/svg" viewBox="0 0 512 512" width="512" height="512"><g id="_14-cruise" data-name="14-cruise"><g id="linear_color" data-name="linear color"><path d="M120,233H106a12,12,0,0,0,0,24h14a12,12,0,0,0,0-24Z"/><path d="M183,233H167a12,12,0,0,0,0,24h16a12,12,0,0,0,0-24Z"/><path d="M250,233H231a12,12,0,0,0,0,24h19a12,12,0,0,0,0-24Z"/><path d="M312,233H296a12,12,0,0,0,0,24h16a12,12,0,0,0,0-24Z"/><path d="M391,245a12,12,0,0,0-12-12H360a12,12,0,0,0,0,24h19A12,12,0,0,0,391,245Z"/><path d="M507.437,268.369A12,12,0,0,0,496,260H445.2l-34.9-58.174A12,12,0,0,0,400,196H358.111l-5.829-8.014A11.995,11.995,0,0,0,352,164H336c-.378,0-.751.022-1.121.057l-5.174-7.115A12,12,0,0,0,320,152H256a12,12,0,0,0-11.277,7.9L231.6,196H172V144a12,12,0,0,0-12-12H128a12,12,0,0,0-12,12v52H80a12,12,0,0,0-11.142,7.543L39.876,276H16A12,12,0,0,0,5.267,293.367l32,64A12,12,0,0,0,48,364H412a12,12,0,0,0,10.733-6.633c12-24.007,61.955-62.686,80.189-75.564A12,12,0,0,0,507.437,268.369ZM264.4,176H313.89l14.545,20h-71.3ZM140,156h8v40h-8ZM88.124,220H393.206l24,40H400a12,12,0,0,0-5.366,1.267L365.167,276H65.725ZM405.07,340H55.416l-20-40H368a12.425,12.425,0,0,0,5.366-1.267L402.833,284H460.41C441.093,299.641,417.208,321.066,405.07,340Z"/></g></g></svg>
